<svg xmlns="http://www.w3.org/2000/svg" viewBox="0 0 64 64" role="img" aria-label="Seahorse">
  <defs>
    <linearGradient id="g" x1="0" y1="0" x2="1" y2="1">
      <stop offset="0" stop-color="#06b6d4" />
      <stop offset="1" stop-color="#0891b2" />
    </linearGradient>
  </defs>
  <rect width="64" height="64" rx="14" fill="#020617" />
  <!-- Seahorse body -->
  <path d="M32 8c-6 0-10 4-10 10 0 4 2 7 5 9-2 1-4 3-4 6 0 2 1 4 3 5l-2 4c-1 2-2 5-2 7h4c0-3 1-5 2-7l3-5c3 1 6 0 8-2 3-3 4-7 3-11-1-4-4-7-8-8-1 0-3 0-4 1 1-2 3-4 5-5l-1-2c-1 1-3 2-4 3 0-1-1-3-1-4 0-2 1-2 2-2 2 0 4 2 5 4 2 3 3 7 2 11-1 3-3 6-6 7-2 1-4 1-5 0 0 0 0 0 0 0l-1 1c-1 1-2 2-2 3h3c0-1 1-2 2-3l2-2c2-1 4-1 5-1 4-1 6-4 7-7 1-4 1-8-1-11-1-3-4-5-6-5-2 0-3 1-3 3z" fill="url(#g)" />
  <!-- Eye -->
  <circle cx="27" cy="18" r="2.5" fill="#020617" />
  <circle cx="27.5" cy="17.5" r="1" fill="#ffffff" />
  <!-- Snout -->
  <path d="M22 22c-2 1-3 2-3 3" stroke="url(#g)" stroke-width="2" stroke-linecap="round" fill="none" />
  <!-- Dorsal fin -->
  <path d="M35 14c2-1 4-1 5 0s1 3-1 4" stroke="url(#g)" stroke-width="1.5" stroke-linecap="round" fill="none" opacity="0.6" />
  <!-- Tail curl -->
  <path d="M32 46c-2 2-4 4-4 7 0 2 1 3 3 3s3-1 3-3c0-1-1-2-2-2" stroke="url(#g)" stroke-width="2" stroke-linecap="round" fill="none" />
</svg>
